<?xml version="1.0" encoding="utf-8"?>
<!-- Generator: Adobe Illustrator 24.2.1, SVG Export Plug-In . SVG Version: 6.00 Build 0)  -->
<svg version="1.1" id="Layer_1" xmlns="http://www.w3.org/2000/svg" xmlns:xlink="http://www.w3.org/1999/xlink" x="0px" y="0px"
	 viewBox="0 0 8410 1305" style="enable-background:new 0 0 8410 1305;" xml:space="preserve">
<g>
	<rect x="1015" y="869.7" width="145" height="145"/>
	<rect x="1160" y="434.8" width="435" height="145"/>
	<polygon points="1160,1159.6 1160,1014.7 1595,1014.7 1595,869.7 1160,869.7 1160,724.7 1595,724.7 1595,579.8 1740,579.8 
		1740,1159.6 	"/>
	<polygon points="1885,1159.6 1885,434.8 2030,434.8 2030,579.8 2175,579.8 2175,724.7 2030,724.7 2030,1159.6 	"/>
	<rect x="2175" y="434.8" width="290" height="145"/>
	<rect x="2465" y="579.8" width="145" height="579.9"/>
	<rect x="2755" y="579.8" width="145" height="434.9"/>
	<polygon points="2900,1159.6 2900,1014.7 3335,1014.7 3335,724.7 3190,724.7 3190,579.8 3335,579.8 3335,144.9 3480,144.9 
		3480,1159.6 	"/>
	<rect x="2900" y="434.8" width="290" height="145"/>
	<polygon points="3625,1014.7 3625,579.8 3770,579.8 3770,724.7 4205,724.7 4205,579.8 4350,579.8 4350,869.7 3770,869.7 
		3770,1014.7 	"/>
	<rect x="3770" y="434.8" width="435" height="145"/>
	<rect x="3770" y="1014.7" width="435" height="145"/>
	<polygon points="4495,1159.6 4495,434.8 4640,434.8 4640,579.8 4785,579.8 4785,724.7 4640,724.7 4640,1159.6 	"/>
	<rect x="4785" y="434.8" width="290" height="145"/>
	<rect x="5075" y="579.8" width="145" height="145"/>
	<rect x="5365" y="869.7" width="290" height="289.9"/>
	<rect x="5800" y="869.7" width="145" height="145"/>
	<rect x="5945" y="434.8" width="435" height="145"/>
	<polygon points="5945,1159.6 5945,1014.7 6380,1014.7 6380,869.7 5945,869.7 5945,724.7 6380,724.7 6380,579.8 6525,579.8 
		6525,1159.6 	"/>
	<polygon points="6670,1159.6 6670,434.8 6815,434.8 6815,579.8 6960,579.8 6960,724.7 6815,724.7 6815,1159.6 	"/>
	<rect x="6960" y="434.8" width="290" height="145"/>
	<rect x="7250" y="579.8" width="145" height="145"/>
	<polygon points="7685,1014.7 7685,579.8 7540,579.8 7540,434.8 7685,434.8 7685,144.9 7830,144.9 7830,434.8 7975,434.8 
		7975,579.8 7830,579.8 7830,1014.7 	"/>
	<rect x="7830" y="1014.7" width="290" height="145"/>
	<rect x="8120" y="869.7" width="145" height="145"/>
	<g>
		<rect x="290" y="869.9" width="145" height="145.1"/>
		<rect x="580" y="869.9" width="145" height="145.1"/>
		<rect x="580" y="579.7" width="145" height="145.1"/>
		<rect x="435" y="724.8" width="145" height="145.1"/>
		<rect x="290" y="579.7" width="145" height="145.1"/>
		<rect x="725" y="1015" width="145" height="145.1"/>
		<rect x="145" y="1015" width="145" height="145.1"/>
		<rect x="145" y="435.1" width="145" height="145.1"/>
		<rect x="725" y="435.1" width="145" height="145.1"/>
	</g>
</g>
</svg>
